<svg width="98" height="98" viewBox="0 0 98 98" fill="none" xmlns="http://www.w3.org/2000/svg">
<rect width="98" height="98" fill="#1E1E1E"/>
<g id="Group 39705">
<g id="Group 39699">
<rect id="Rectangle 5618" x="-138" y="-72" width="374.035" height="543.12" rx="12" fill="url(#paint0_linear_0_1)"/>
<g id="Flatfile">
<rect id="Rectangle 41" x="-116.48" y="-46.381" width="330.549" height="189.58" rx="24" fill="#FEE4CB"/>
<g id="flatfile-logos-idI-wdCrWy 1" clip-path="url(#clip0_0_1)">
<g id="Group">
<g id="Group_2">
<g id="Group_3">
<path id="Vector" d="M24.1287 53.6745C22.9109 54.8898 21.4902 55.4974 19.6635 55.4974H13.5745H4.84703C3.42628 55.4974 2.41145 55.0923 1.59959 54.0796C0.787729 53.2694 0.178833 52.2567 0.178833 50.8389V28.1542V5.26687C0.178833 3.84908 0.787729 2.83636 1.59959 2.02619C2.41145 1.21603 3.62924 0.608398 4.84703 0.608398H18.4457H32.2473C33.6681 0.608398 34.6829 1.21603 35.4948 2.02619C36.3066 2.83636 36.9155 4.05162 36.9155 5.26687V23.0906V38.4838C36.9155 40.1042 36.3066 41.7245 35.0889 42.7372L29.8118 48.0033L24.1287 53.6745Z" fill="#3B2FC9"/>
<path id="Vector_2" d="M44.0193 24.5084C42.8015 23.2931 42.1926 21.8753 42.1926 20.255V13.9762V5.26687C42.1926 3.84908 42.8015 2.83636 43.6134 2.02619C44.4252 1.21603 45.643 0.608398 46.8608 0.608398H69.5929H92.528C93.9488 0.608398 94.9636 1.21603 95.7754 2.02619C96.5873 2.83636 97.1962 4.05162 97.1962 5.26687V18.8372V32.6101C97.1962 34.0279 96.5873 35.0406 95.7754 35.8508C94.9636 36.6609 93.7458 37.2686 92.528 37.2686H74.6671H59.2417C57.618 37.2686 55.9943 36.6609 54.7765 35.4457L49.4994 30.1796L44.0193 24.5084Z" fill="#3B2FC9"/>
<path id="Vector_3" d="M73.4492 44.7626C74.667 43.5474 76.0878 42.9398 77.9145 42.9398H84.0034H92.7309C94.1517 42.9398 95.1665 43.5474 95.9784 44.3576C96.7902 45.1677 97.3991 46.383 97.3991 47.5982V70.283V92.9677C97.3991 94.3855 96.7902 95.3982 95.9784 96.2084C95.1665 97.0186 93.9487 97.6262 92.7309 97.6262H78.9293H65.1277C63.7069 97.6262 62.6921 97.0186 61.8802 96.2084C61.0684 95.3982 60.4595 94.183 60.4595 92.9677V75.144V59.7508C60.4595 58.1304 61.0684 56.5101 62.2862 55.4974L67.5633 50.2313L73.4492 44.7626Z" fill="#3B2FC9"/>
<path id="Vector_4" d="M53.3557 73.9287C54.5735 75.144 55.1824 76.5618 55.1824 78.3847V84.461V93.1703C55.1824 94.5881 54.5735 95.6008 53.7616 96.4109C52.9498 97.2211 51.732 97.8287 50.5142 97.8287H27.7821H4.84703C3.42628 97.8287 2.41145 97.2211 1.59959 96.4109C0.787729 95.6008 0.178833 94.3855 0.178833 93.1703V79.5999V65.8271C0.178833 64.4093 0.787729 63.3965 1.59959 62.5864C2.41145 61.7762 3.62924 61.1686 4.84703 61.1686H22.708H38.1333C39.757 61.1686 41.3808 61.7762 42.3956 62.9915L47.6727 68.2576L53.3557 73.9287Z" fill="#3B2FC9"/>
</g>
</g>
</g>
</g>
</g>
</g>
</g>
<defs>
<linearGradient id="paint0_linear_0_1" x1="49.0177" y1="-72" x2="49.0177" y2="1446.17" gradientUnits="userSpaceOnUse">
<stop stop-color="white"/>
<stop offset="1" stop-color="#FEE4CB"/>
</linearGradient>
<clipPath id="clip0_0_1">
<rect width="97.2203" height="97.2203" fill="white" transform="translate(0.178833 0.608398)"/>
</clipPath>
</defs>
</svg>
