<svg width="331" height="190" viewBox="0 0 331 190" fill="none" xmlns="http://www.w3.org/2000/svg">
<rect x="0.432861" y="0.205811" width="330.549" height="189.58" rx="24" fill="#FFE002"/>
<g clip-path="url(#clip0_10_579)">
<path d="M163.699 48.8156C146.474 48.7579 113.336 88.2453 125.716 98.705L128.757 101.28C127.936 103.48 127.646 105.842 127.91 108.176C128.233 111.408 129.903 114.502 132.605 116.896C135.168 119.166 138.539 120.606 141.81 120.606C147.221 133.074 159.589 140.725 174.082 141.156C189.629 141.617 202.686 134.321 208.155 121.214C208.513 120.29 210.033 116.149 210.033 112.49C210.033 108.811 207.955 107.287 206.627 107.287C206.588 107.144 206.327 106.186 205.965 105.032C205.607 103.877 205.234 103.069 205.234 103.069C206.677 100.902 206.704 98.9706 206.512 97.8738C206.308 96.5154 205.742 95.3609 204.603 94.164C203.464 92.9672 201.132 91.7396 197.857 90.8237L196.14 90.3465C196.133 90.2734 196.048 86.2943 195.975 84.5856C195.921 83.3541 195.813 81.4223 195.217 79.5251C194.501 76.9544 193.262 74.7032 191.711 73.2639C195.99 68.8306 198.661 63.9433 198.653 59.7525C198.642 51.6903 188.74 49.2505 176.541 54.3033L173.955 55.4001C172.376 53.8498 170.796 52.3015 169.214 50.7552C167.69 49.4275 165.816 48.8233 163.699 48.8156ZM163.98 52.1752C164.619 52.1752 165.219 52.2483 165.77 52.3984C166.912 52.7216 170.695 57.1087 170.695 57.1087C170.695 57.1087 163.668 61.007 157.149 66.4447C148.375 73.2062 141.737 83.0347 137.765 93.6984C134.644 94.3064 131.893 96.0766 130.211 98.5203C129.207 97.6814 127.333 96.0574 127.002 95.4263C124.316 90.3234 129.93 80.4102 133.856 74.8109C142.791 62.0538 156.399 52.1521 163.98 52.1752ZM176.626 64.7707C176.78 64.763 176.856 64.9631 176.733 65.0555C176.183 65.4788 175.583 66.056 175.144 66.6487C175.127 66.6713 175.117 66.6981 175.114 66.7262C175.111 66.7544 175.116 66.7827 175.129 66.8082C175.141 66.8336 175.16 66.8552 175.184 66.8705C175.208 66.8858 175.235 66.8942 175.263 66.8949C177.799 66.9103 181.371 67.7993 183.699 69.1039C183.857 69.1924 183.745 69.5003 183.568 69.4579C180.047 68.6498 174.278 68.0379 168.29 69.4964C162.941 70.8048 158.862 72.8175 155.883 74.9841C155.729 75.0918 155.552 74.8956 155.672 74.7532C159.12 70.7702 163.364 67.3067 167.166 65.3633C167.297 65.2941 167.436 65.4364 167.367 65.5634C167.063 66.1137 166.481 67.2836 166.297 68.1726C166.27 68.3073 166.42 68.415 166.535 68.3342C168.902 66.7179 173.016 64.9939 176.626 64.7707ZM188.259 77.1045L188.475 77.1084C189.1 77.133 189.706 77.3272 190.229 77.6702C192.284 79.0364 192.577 82.3497 192.685 84.7703C192.742 86.1557 192.912 89.4999 192.969 90.4581C193.1 92.6555 193.677 92.9634 194.843 93.3482C195.498 93.5675 196.113 93.7253 197.01 93.9793C199.727 94.7413 201.339 95.5186 202.359 96.5115C202.963 97.1349 203.244 97.793 203.333 98.4241C203.652 100.764 201.516 103.658 195.859 106.278C189.675 109.149 182.171 109.877 176.987 109.299L175.175 109.095C171.026 108.537 168.66 113.894 171.149 117.566C172.754 119.932 177.122 121.472 181.494 121.472C191.515 121.472 199.215 117.196 202.082 113.498C202.165 113.393 202.242 113.284 202.313 113.171C202.452 112.959 202.336 112.844 202.159 112.963C199.819 114.564 189.421 120.925 178.3 119.009C178.3 119.009 176.949 118.789 175.714 118.308C174.732 117.923 172.681 116.984 172.431 114.879C181.409 117.65 187.058 115.03 187.058 115.03C187.111 115.006 187.154 114.966 187.183 114.917C187.212 114.867 187.225 114.81 187.22 114.752C187.217 114.719 187.207 114.686 187.19 114.656C187.174 114.626 187.152 114.599 187.126 114.578C187.099 114.556 187.069 114.54 187.036 114.53C187.003 114.521 186.969 114.518 186.935 114.522C186.935 114.522 179.581 115.611 172.627 113.067C173.385 110.604 175.398 111.497 178.438 111.739C183.168 112.02 187.912 111.507 192.473 110.223C195.621 109.323 199.754 107.541 202.967 105.005C204.049 107.383 204.43 110.004 204.43 110.004C204.43 110.004 205.272 109.85 205.969 110.285C206.635 110.693 207.12 111.539 206.789 113.729C206.111 117.82 204.372 121.141 201.451 124.196C199.625 126.171 197.452 127.793 195.04 128.984C193.731 129.676 192.331 130.269 190.857 130.754C179.839 134.352 168.56 130.396 164.923 121.903C164.628 121.253 164.385 120.581 164.196 119.894C162.645 114.295 163.965 107.579 168.075 103.35C168.325 103.081 168.583 102.761 168.583 102.365C168.583 102.03 168.371 101.676 168.19 101.43C166.751 99.34 161.767 95.788 162.768 88.9073C163.487 83.966 167.809 80.4833 171.838 80.6911C172.181 80.7065 172.519 80.7296 172.862 80.7488C174.605 80.8528 176.133 81.076 177.568 81.1337C179.974 81.2414 182.136 80.8912 184.699 78.7554C185.565 78.0358 186.258 77.4085 187.432 77.2123C187.539 77.193 187.786 77.1045 188.259 77.1045ZM188.344 85.4938C188.266 85.4947 188.189 85.5011 188.113 85.5131C186.824 85.7209 186.777 87.3141 187.235 89.5153C187.497 90.7467 187.955 91.805 188.467 92.4592C189.14 92.3823 189.787 92.3746 190.383 92.4592C190.726 91.6703 190.784 90.3157 190.476 88.8341C190.045 86.7753 189.471 85.4784 188.344 85.4938ZM174.259 91.4433C172.856 91.4375 171.487 91.8767 170.349 92.6978C169.733 93.1481 169.152 93.7754 169.233 94.1525C169.264 94.2756 169.352 94.368 169.572 94.3949C170.076 94.4527 171.85 93.5599 173.889 93.4329C175.329 93.3443 176.522 93.7946 177.441 94.2025C178.361 94.6027 178.927 94.8683 179.146 94.6374C179.289 94.4911 179.246 94.2141 179.027 93.8523C178.573 93.1134 177.642 92.363 176.649 91.9397C175.893 91.6165 175.081 91.4477 174.259 91.4433ZM189.968 94.5604C189.31 94.5489 188.763 95.2762 188.748 96.1767C188.732 97.0849 189.252 97.8315 189.914 97.8392C190.576 97.8507 191.122 97.1272 191.138 96.2229C191.153 95.3147 190.63 94.572 189.968 94.5604ZM176.191 95.2223C175.998 95.2223 175.798 95.23 175.594 95.2531C174.397 95.4455 173.736 95.8381 173.312 96.2036C172.95 96.5192 172.727 96.8694 172.727 97.1157C172.727 97.1539 172.734 97.1919 172.748 97.2273C172.762 97.2628 172.784 97.2951 172.81 97.3223C172.837 97.3495 172.869 97.3711 172.905 97.3858C172.94 97.4006 172.978 97.4082 173.016 97.4082C173.285 97.4082 173.893 97.1657 173.893 97.1657C175.121 96.7028 176.448 96.5649 177.745 96.7655C178.35 96.8348 178.631 96.8694 178.765 96.6654C178.804 96.6039 178.85 96.4769 178.727 96.2806C178.484 95.8842 177.534 95.2454 176.191 95.2223ZM184.888 96.7616C184.399 96.7616 183.984 96.9579 183.799 97.3312C183.51 97.9238 183.934 98.7281 184.746 99.1245C185.554 99.5247 186.45 99.3669 186.747 98.7782C187.035 98.1817 186.612 97.3774 185.8 96.981C185.517 96.8382 185.205 96.7658 184.888 96.7616ZM140.113 96.854C140.298 96.854 140.49 96.854 140.686 96.8655C143.496 97.0195 147.636 99.1745 148.583 105.293C149.418 110.719 148.09 116.234 143.007 117.104C142.533 117.181 142.052 117.215 141.568 117.204C136.873 117.077 131.797 112.848 131.293 107.833C130.735 102.292 133.567 98.0277 138.581 97.0156C139.032 96.9233 139.551 96.8617 140.113 96.854ZM139.843 100.421C139.233 100.416 138.628 100.538 138.066 100.779C137.505 101.02 137 101.375 136.584 101.822C135.122 103.431 134.895 105.624 135.176 106.402C135.279 106.683 135.445 106.763 135.56 106.779C135.807 106.81 136.176 106.629 136.407 106.009C136.43 105.943 136.452 105.876 136.472 105.809C136.612 105.311 136.815 104.832 137.077 104.385C137.267 104.093 137.514 103.842 137.802 103.645C138.09 103.449 138.414 103.311 138.755 103.24C139.097 103.169 139.449 103.166 139.791 103.231C140.134 103.296 140.46 103.428 140.752 103.619C141.775 104.289 142.172 105.543 141.733 106.736C141.51 107.356 141.14 108.541 141.221 109.511C141.387 111.478 142.595 112.27 143.684 112.351C144.739 112.39 145.477 111.801 145.666 111.366C145.778 111.108 145.685 110.954 145.624 110.885C145.458 110.681 145.189 110.743 144.931 110.804C144.73 110.858 144.523 110.887 144.315 110.889C144.094 110.895 143.875 110.846 143.678 110.747C143.48 110.647 143.311 110.5 143.184 110.319C142.884 109.857 142.903 109.165 143.234 108.38C143.276 108.272 143.33 108.156 143.388 108.026C143.919 106.84 144.804 104.851 143.811 102.957C143.061 101.534 141.837 100.641 140.371 100.456C140.195 100.432 140.017 100.42 139.84 100.418L139.843 100.421Z" fill="black"/>
</g>
<defs>
<clipPath id="clip0_10_579">
<rect width="92.3593" height="92.3593" fill="white" transform="translate(120.34 48.8157)"/>
</clipPath>
</defs>
</svg>
